<?xml version="1.0" standalone="no"?>
<svg viewBox="0 0 200 200" xmlns="http://www.w3.org/2000/svg">
  <path fill="#6C07DF" d="M37.2,-56.2C51.5,-48.8,68.6,-43.9,68.4,-34.2C68.3,-24.5,50.9,-9.8,47,5.7C43,21.1,52.6,37.5,51.3,51.3C50,65.2,37.9,76.5,26.5,71.3C15,66,4.2,44.2,-8.8,37.1C-21.8,30,-37.1,37.7,-48.9,35.9C-60.7,34,-68.9,22.5,-62.5,13.9C-56.1,5.3,-35.1,-0.6,-28.5,-12.2C-21.9,-23.8,-29.8,-41.3,-27.5,-54.1C-25.2,-67,-12.6,-75.2,-0.5,-74.4C11.5,-73.5,23,-63.5,37.2,-56.2Z" transform="translate(100 100)" />
</svg>
